<svg width="450" height="750" viewBox="0 0 450 750" fill="none" xmlns="http://www.w3.org/2000/svg">
<rect width="450" height="750" rx="25" fill="#3C0058"/>
<path d="M85.0438 79.6312L131 75L85.0438 70.3687L114.256 34.7437L78.6312 63.9562L74 18L69.3687 63.9562L33.7437 34.7437L62.9562 70.3687L17 75L62.9562 79.6312L33.7437 115.256L69.3687 86.0438L74 132L78.6312 86.0438L114.256 115.256L85.0438 79.6312Z" fill="#E4FFFA"/>
<path d="M384.044 79.6312L430 75L384.044 70.3687L413.256 34.7437L377.631 63.9562L373 18L368.369 63.9562L332.744 34.7437L361.956 70.3687L316 75L361.956 79.6312L332.744 115.256L368.369 86.0438L373 132L377.631 86.0438L413.256 115.256L384.044 79.6312Z" fill="#E4FFFA"/>
<path d="M384.044 679.631L430 675L384.044 670.369L413.256 634.744L377.631 663.956L373 618L368.369 663.956L332.744 634.744L361.956 670.369L316 675L361.956 679.631L332.744 715.256L368.369 686.044L373 732L377.631 686.044L413.256 715.256L384.044 679.631Z" fill="#E4FFFA"/>
<path d="M85.0438 679.631L131 675L85.0438 670.369L114.256 634.744L78.6312 663.956L74 618L69.3687 663.956L33.7437 634.744L62.9562 670.369L17 675L62.9562 679.631L33.7437 715.256L69.3687 686.044L74 732L78.6312 686.044L114.256 715.256L85.0438 679.631Z" fill="#E4FFFA"/>
<path d="M249.025 385.075L349 375L249.025 364.925L312.575 287.425L235.075 350.975L225 251L214.925 350.975L137.425 287.425L200.975 364.925L101 375L200.975 385.075L137.425 462.575L214.925 399.025L225 499L235.075 399.025L312.575 462.575L249.025 385.075Z" fill="#E4FFFA"/>
</svg>
