<svg width="343" height="430" viewBox="0 0 343 430" fill="none" xmlns="http://www.w3.org/2000/svg">
<path d="M343 258.5C343 353.217 266.217 430 171.5 430C76.7832 430 0 353.217 0 258.5C0 163.783 99.7832 0 171.5 0C243.217 0 343 163.783 343 258.5Z" fill="#7ACBDD"/>
<circle cx="114" cy="89" r="22" fill="#FFFCB6"/>
<circle cx="240" cy="142" r="22" fill="#FFFCB6"/>
<circle cx="147" cy="220" r="22" fill="#FFFCB6"/>
<circle cx="54" cy="298" r="22" fill="#FFFCB6"/>
<circle cx="247" cy="315" r="22" fill="#FFFCB6"/>
<circle cx="139" cy="389" r="22" fill="#FFFCB6"/>
<circle cx="291" cy="231" r="22" fill="#FFFCB6"/>
<circle cx="59" cy="179" r="22" fill="#FFFCB6"/>
<circle cx="209" cy="55" r="22" fill="#FFFCB6"/>
<circle cx="172" cy="126" r="12" fill="#FFFCB6"/>
<circle cx="126" cy="169" r="12" fill="#FFFCB6"/>
<circle cx="150" cy="36" r="12" fill="#FFFCB6"/>
<circle cx="296" cy="173" r="12" fill="#FFFCB6"/>
<circle cx="218" cy="276" r="12" fill="#FFFCB6"/>
<circle cx="221" cy="203" r="12" fill="#FFFCB6"/>
<circle cx="76" cy="363" r="12" fill="#FFFCB6"/>
<circle cx="174" cy="310" r="12" fill="#FFFCB6"/>
<circle cx="54" cy="232" r="12" fill="#FFFCB6"/>
<circle cx="117" cy="276" r="12" fill="#FFFCB6"/>
<circle cx="250" cy="383" r="12" fill="#FFFCB6"/>
<circle cx="313" cy="310" r="12" fill="#FFFCB6"/>
<circle cx="187" cy="367" r="12" fill="#FFFCB6"/>
</svg>
