<svg width="343" height="430" viewBox="0 0 343 430" fill="none" xmlns="http://www.w3.org/2000/svg">
<path d="M343 258.5C343 353.217 266.217 430 171.5 430C76.7832 430 0 353.217 0 258.5C0 163.783 99.7832 0 171.5 0C243.217 0 343 163.783 343 258.5Z" fill="#DDAA7A"/>
<path fill-rule="evenodd" clip-rule="evenodd" d="M1 277.128V241.204C1.6758 235.073 2.68505 228.742 4 222.261V295.493C2.67875 289.484 1.67268 283.356 1 277.128ZM113.655 420C111.035 419.061 108.444 418.061 105.884 417H237.116C234.556 418.061 231.965 419.061 229.345 420H113.655ZM289.975 382.5H53.0249C51.9919 381.513 50.9711 380.513 49.963 379.5H293.037C292.029 380.513 291.008 381.513 289.975 382.5ZM322.5 168.214V339.879C321.531 341.674 320.531 343.449 319.5 345.205V160.869C320.528 163.317 321.529 165.766 322.5 168.214ZM121.841 21H221.159C222.411 21.9711 223.663 22.9715 224.914 24H118.086C119.337 22.9715 120.589 21.9711 121.841 21ZM52 104.767V337.5V339H53.5H284.5H286V337.5V96.6466C285.008 95.0744 284.008 93.5121 283 91.9604V336H55V99.8471C53.991 101.478 52.9909 103.118 52 104.767ZM64 85.9176V293V294.5H65.5H257H258.5V293V91.5V90H257H100H98.5V91.5V260V261.5H100H243H244.5V260V126.5V125H243H117.5H116V126.5V242.5V244H117.5H216.5H218V242.5V151.5V150H216.5H136.5H135V151.5V217V218.5H136.5H196.5H198V217V173V171.5H196.5H164H162.5V173V193.5H165.5V174.5H195V215.5H138V153H215V241H119V128H241.5V258.5H101.5V93H255.5V291.5H67V81.5333C65.9936 82.9834 64.9935 84.4451 64 85.9176ZM81.9052 61.5H261.095C260.288 60.4913 259.479 59.4912 258.667 58.5H84.3325C83.5209 59.4912 82.7118 60.4913 81.9052 61.5Z" fill="#FFF974"/>
</svg>
