<svg width="343" height="430" viewBox="0 0 343 430" fill="none" xmlns="http://www.w3.org/2000/svg">
<path d="M343 258.5C343 353.217 266.217 430 171.5 430C76.7832 430 0 353.217 0 258.5C0 163.783 99.7832 0 171.5 0C243.217 0 343 163.783 343 258.5Z" fill="#ACDD7A"/>
<path fill-rule="evenodd" clip-rule="evenodd" d="M342.736 268.102C342.911 264.924 343 261.722 343 258.5C343 247.33 341.612 235.2 339.047 222.492L223.96 421.828C238.756 417.079 252.676 410.376 265.417 402.022L342.736 268.102Z" fill="#FF94F4"/>
<path fill-rule="evenodd" clip-rule="evenodd" d="M327.713 182.122L184.898 429.484C180.477 429.826 176.009 430 171.5 430C165.944 430 160.45 429.736 155.029 429.219L315.404 151.442C319.996 161.666 324.128 171.947 327.713 182.122Z" fill="#FF94F4"/>
<path fill-rule="evenodd" clip-rule="evenodd" d="M299.34 119.264L123.815 423.284C115.297 420.823 107.052 417.72 99.1353 414.03L284.1 93.6624C289.421 101.942 294.521 110.514 299.34 119.264Z" fill="#FF94F4"/>
<path fill-rule="evenodd" clip-rule="evenodd" d="M265.088 66.5915L73.1592 399.022C65.9458 393.964 59.1401 388.366 52.8003 382.285L247.306 45.3911C253.343 51.9533 259.292 59.0586 265.088 66.5915Z" fill="#FF94F4"/>
<path fill-rule="evenodd" clip-rule="evenodd" d="M224.982 24.0565L32.0093 358.296C26.2314 350.234 21.1357 341.651 16.8052 332.631L203.483 9.29506C210.599 13.1644 217.799 18.1458 224.982 24.0565Z" fill="#FF94F4"/>
<path fill-rule="evenodd" clip-rule="evenodd" d="M174.166 0.0742645L3.8916 294.997C1.34229 283.236 0 271.025 0 258.5C0 255.473 0.102051 252.376 0.301758 249.215L138.494 9.85858C149.832 3.53198 160.968 0 171.5 0C172.384 0 173.273 0.0249023 174.166 0.0742645Z" fill="#FF94F4"/>
<path fill-rule="evenodd" clip-rule="evenodd" d="M7.76562 309.676L209.037 425.88C196.956 428.577 184.394 430 171.5 430C168.948 430 166.41 429.944 163.886 429.834L26.8931 350.741C18.8052 338.088 12.3325 324.303 7.76562 309.676Z" fill="#A091FF"/>
<path fill-rule="evenodd" clip-rule="evenodd" d="M1.01025 241.112L271.935 397.53C263.92 403.33 255.385 408.453 246.412 412.817L0.43457 270.802C0.146484 266.739 0 262.637 0 258.5C0 252.927 0.345703 247.116 1.01025 241.112Z" fill="#A091FF"/>
<path fill-rule="evenodd" clip-rule="evenodd" d="M14.5405 184.261L312.434 356.25C307.41 363.48 301.844 370.305 295.795 376.666L6.84375 209.84C8.9707 201.466 11.5552 192.907 14.5405 184.261Z" fill="#A091FF"/>
<path fill-rule="evenodd" clip-rule="evenodd" d="M36.709 132.397L336.487 305.474C334.062 314.009 330.992 322.274 327.333 330.211L25.583 155.995C29.0239 148.085 32.7466 140.193 36.709 132.397Z" fill="#A091FF"/>
<path fill-rule="evenodd" clip-rule="evenodd" d="M342.292 274.184L51.1924 106.118C55.6753 98.5938 60.353 91.2534 65.1836 84.1732L342.302 244.168C342.763 249.091 343 253.878 343 258.5C343 263.787 342.761 269.019 342.292 274.184Z" fill="#A091FF"/>
<path fill-rule="evenodd" clip-rule="evenodd" d="M334.96 205.288L83.1763 59.9203C88.9268 52.8173 94.8047 46.1562 100.751 40.0448L322.427 168.029C327.423 180.598 331.657 193.118 334.96 205.288Z" fill="#A091FF"/>
<path fill-rule="evenodd" clip-rule="evenodd" d="M299.979 120.428L124.398 19.0566C133.214 12.4985 142.01 7.42108 150.601 4.16234L269.962 73.0755C280.715 87.7136 290.862 103.756 299.979 120.428Z" fill="#A091FF"/>
</svg>
