<svg width="343" height="430" viewBox="0 0 343 430" fill="none" xmlns="http://www.w3.org/2000/svg">
<path d="M343 258.5C343 353.217 266.217 430 171.5 430C76.7832 430 0 353.217 0 258.5C0 163.783 99.7832 0 171.5 0C243.217 0 343 163.783 343 258.5Z" fill="#DB7ADD"/>
<path fill-rule="evenodd" clip-rule="evenodd" d="M39.6272 126.754C51.9081 128.74 65.8233 136.323 82 152.5C119.5 115 141 115.5 178 152.5C210 120.5 241 119.5 274 152.5C284.321 142.179 295.394 135.83 306.533 132.873C270.952 62.6561 215.858 0 171.5 0C128.435 0 75.25 59.0574 39.6272 126.754Z" fill="#550101"/>
<path fill-rule="evenodd" clip-rule="evenodd" d="M326.915 331.111C299.574 389.531 240.263 430 171.5 430C99.3866 430 37.6687 385.491 12.3186 322.446C34.5236 330.962 59.9732 327.027 82 305C115 338 146 337 178 305C215 342 236.5 342.5 274 305C294.989 325.989 312.171 332.511 326.915 331.111Z" fill="#550101"/>
</svg>
