<svg width="343" height="430" viewBox="0 0 343 430" fill="none" xmlns="http://www.w3.org/2000/svg">
<path d="M343 258.5C343 353.217 266.217 430 171.5 430C76.7832 430 0 353.217 0 258.5C0 163.783 99.7832 0 171.5 0C243.217 0 343 163.783 343 258.5Z" fill="#DDD37A"/>
<path fill-rule="evenodd" clip-rule="evenodd" d="M66.916 81.6545C67.5534 80.7354 68.1933 79.8209 68.8356 78.9113C74.9547 90.3135 83.7539 101.22 92.7934 107.032C101.72 112.772 112.639 111.268 122.872 105.639C133.092 100.017 142.296 90.4313 147.455 80.7042C152.63 70.947 152.992 64.287 150.095 58.609C147.096 52.7306 140.464 47.5564 130.615 41.2396C121.487 35.385 113.768 32.9858 107.282 33.5824C108.374 32.5441 109.467 31.5253 110.561 30.5268C117.087 30.858 124.309 33.6309 132.235 38.7144C142.01 44.9841 149.349 50.5454 152.767 57.2456C156.288 64.1462 155.516 71.908 150.105 82.1098C144.679 92.3416 135.061 102.357 124.318 108.268C113.587 114.171 101.399 116.132 91.171 109.556C81.9221 103.609 73.1462 92.8553 66.916 81.6545ZM86.0571 56.4117C85.8077 60.6524 87.0143 64.7216 89.1455 68.4928C92.8603 75.0664 99.374 80.6757 105.789 84.3795C108.884 86.1664 111.377 86.7006 113.447 86.4984C115.512 86.2966 117.35 85.3431 119.106 83.7887C120.877 82.2198 122.507 80.09 124.131 77.6438C125.098 76.1874 126.015 74.6976 126.951 73.1762L126.951 73.1758L126.951 73.1755C127.612 72.1005 128.283 71.0097 128.989 69.9039C132.199 64.8711 132.328 62.0737 131.352 60.1053C130.826 59.0448 129.9 58.0421 128.535 56.9919C127.169 55.9403 125.463 54.9144 123.466 53.7615C122.438 53.1677 121.436 52.5335 120.475 51.9199L120.127 51.6971C119.284 51.1582 118.476 50.6416 117.679 50.1648C115.848 49.0691 114.24 48.2873 112.751 48.0216C111.344 47.7704 110.021 47.9744 108.645 48.9587C107.202 49.9909 105.615 51.9454 103.928 55.3929C101.386 60.5882 102.288 64.4154 104.266 67.1718C106.33 70.0469 109.685 71.9063 112.165 72.7081L111.242 75.5626C108.364 74.6322 104.378 72.4727 101.829 68.921C99.195 65.2506 98.2148 60.243 101.233 54.0744C103.021 50.4195 104.88 47.9634 106.899 46.5187C108.986 45.0262 111.142 44.687 113.278 45.0682C115.333 45.4349 117.332 46.461 119.22 47.5906C120.057 48.0919 120.906 48.6343 121.744 49.1704L121.744 49.1705L122.09 49.3916C123.05 50.0044 124.002 50.6064 124.966 51.1634C126.956 52.3124 128.822 53.4271 130.365 54.6145C131.91 55.8033 133.229 57.1381 134.04 58.7728C135.737 62.1951 134.897 66.22 131.518 71.5173C130.874 72.5264 130.22 73.5887 129.561 74.6597C128.59 76.2356 127.608 77.8305 126.63 79.3034C124.961 81.8168 123.161 84.2051 121.094 86.0348C119.012 87.8788 116.603 89.2043 113.738 89.4841C110.879 89.7635 107.761 88.9819 104.289 86.9776C97.5714 83.0991 90.5909 77.1484 86.5336 69.9688C84.7651 66.8392 83.5504 63.466 83.1597 59.9407C84.1221 58.7518 85.0879 57.5753 86.0571 56.4117Z" fill="#CCFCFF"/>
<path d="M197.822 92.3254C198.474 86.7323 202.836 76.3545 215.068 79.5877C230.357 83.6291 224.479 91.6438 221.522 100.363C218.565 109.082 216.223 114.293 204.805 109.849C193.386 105.404 180.329 102.406 185.199 88.0445C190.07 73.6834 202.601 57.0594 220.547 63.4314C238.492 69.8035 243.685 83.2883 235.175 104.993C226.665 126.698 219.576 136.59 197.934 130.108C176.292 123.626 152.133 100.85 160.469 79.6574C168.805 58.4651 198.733 34.5875 213.945 36.3152" stroke="#CCFCFF" stroke-width="3"/>
<path fill-rule="evenodd" clip-rule="evenodd" d="M142.968 7.50324C142.062 7.95128 141.154 8.41799 140.245 8.90298C141.091 11.6111 142.846 13.6854 145.036 15.3483C147.234 17.0175 149.928 18.3165 152.719 19.4623C154.354 20.1337 156.11 20.7853 157.846 21.4291C159.025 21.8667 160.194 22.3007 161.31 22.7348C167.165 25.0139 171.276 25.0509 174.301 22.7184C175.746 21.6042 176.797 20.0489 177.662 18.302C178.525 16.5569 179.253 14.5092 179.991 12.3331C180.349 11.2781 180.754 10.2268 181.167 9.16592L181.316 8.78361C181.679 7.85647 182.045 6.9187 182.373 5.99909C182.904 4.5087 183.372 2.97201 183.577 1.45014C182.591 1.22057 181.609 1.0175 180.631 0.841476C180.49 2.07944 180.096 3.45339 179.547 4.9911C179.235 5.86561 178.887 6.75871 178.523 7.69056L178.523 7.69083L178.372 8.07618C177.958 9.13835 177.532 10.2448 177.15 11.3696C176.41 13.5531 175.737 15.4265 174.973 16.9719C174.209 18.5153 173.407 19.6198 172.469 20.3427C170.73 21.6842 167.961 22.1044 162.398 19.9392C161.176 19.4635 159.975 19.0185 158.792 18.58L158.791 18.5797L158.791 18.5795C157.116 17.9589 155.475 17.351 153.858 16.6871C151.142 15.5719 148.735 14.3903 146.85 12.9591C144.982 11.541 143.688 9.92419 143.087 7.93862C143.044 7.79638 143.004 7.65129 142.968 7.50324ZM156.689 2.15135C156.535 2.79966 156.427 3.41922 156.361 3.98745L153.381 3.64001C153.4 3.47944 153.421 3.31508 153.446 3.14731C154.531 2.78516 155.612 2.45294 156.689 2.15135ZM124.566 18.932C125.074 19.6026 125.605 20.2661 126.156 20.9216C133.667 29.8465 144.866 37.0004 155.413 40.1594C165.994 43.3282 172.596 42.3824 177.599 38.432C182.778 34.3421 186.557 26.8273 190.828 15.9342C192.405 11.9122 193.487 8.21674 194.102 4.83114C195.042 5.21236 195.983 5.61492 196.927 6.03838C196.251 9.47624 195.145 13.1404 193.621 17.0293C189.381 27.8413 185.361 36.1247 179.458 40.7864C173.378 45.5875 165.615 46.3465 154.553 43.0333C143.458 39.7103 131.756 32.2351 123.861 22.8532C123.278 22.1611 122.716 21.457 122.174 20.7419C122.972 20.1266 123.769 19.5233 124.566 18.932Z" fill="#CCFCFF"/>
<path fill-rule="evenodd" clip-rule="evenodd" d="M242.154 39.947C240.088 44.3104 239.064 48.5175 239.117 52.5755C239.22 60.4769 243.399 67.4414 251.065 73.5617C258.288 79.3278 266.081 79.8867 273.253 77.6258C272.638 76.7614 272.02 75.9014 271.4 75.046C265.302 76.7176 258.931 76.0021 252.937 71.2171C245.721 65.4566 242.205 59.2601 242.116 52.5361C242.074 49.3233 242.813 45.9072 244.392 42.2736C243.647 41.4895 242.901 40.7139 242.154 39.947ZM284.649 94.5185C285.195 95.373 285.739 96.2306 286.28 97.0911C284.815 97.6982 283.345 98.2674 281.877 98.7961C275.49 101.098 269.099 102.655 263.392 103.212C257.722 103.766 252.556 103.35 248.743 101.529L250.036 98.8218C253.131 100.3 257.656 100.758 263.1 100.227C268.506 99.6987 274.651 98.2113 280.86 95.9738C282.125 95.5181 283.39 95.0323 284.649 94.5185Z" fill="#CCFCFF"/>
<path fill-rule="evenodd" clip-rule="evenodd" d="M295.34 112.153C293.759 111.695 292.139 111.315 290.493 111.009C278.437 108.768 264.65 110.417 253.967 114.889C243.315 119.348 237.797 124.861 236.144 132.43C234.54 139.779 236.69 148.732 240.274 159.778C243.924 171.025 249.025 178.75 255.754 182.762C262.541 186.809 270.662 186.894 279.89 183.565C289.449 180.116 294.004 172.786 295.432 164.582C296.846 156.457 295.22 147.43 292.484 140.171C291.07 136.421 289.154 133.839 286.766 132.242C284.373 130.643 281.67 130.14 278.89 130.246C276.132 130.351 273.226 131.057 270.342 131.942C268.652 132.461 266.881 133.072 265.131 133.675C263.942 134.086 262.763 134.492 261.625 134.865C255.654 136.819 252.453 139.399 251.595 143.122C251.185 144.9 251.36 146.769 251.801 148.667C252.241 150.564 252.977 152.609 253.788 154.759C254.181 155.801 254.535 156.87 254.889 157.953L255.016 158.343L255.016 158.343C255.325 159.289 255.637 160.246 255.967 161.165C256.71 163.235 257.606 165.296 258.962 166.883C260.373 168.532 262.255 169.636 264.815 169.805C267.293 169.968 270.287 169.247 273.987 167.554C280.232 164.697 282.649 160.203 282.939 155.695C283.22 151.332 281.506 147.135 279.87 144.591L277.347 146.213C278.756 148.406 280.172 151.971 279.945 155.502C279.727 158.888 277.999 162.42 272.739 164.826C269.249 166.423 266.783 166.928 265.012 166.812C263.324 166.7 262.171 166.019 261.242 164.933C260.259 163.783 259.511 162.159 258.79 160.151C258.476 159.277 258.179 158.366 257.869 157.414L257.741 157.021C257.387 155.937 257.014 154.812 256.595 153.701C255.782 151.543 255.113 149.668 254.723 147.989C254.334 146.311 254.253 144.949 254.519 143.795C255.012 141.654 256.885 139.573 262.558 137.716C263.805 137.308 265.015 136.89 266.208 136.478L266.209 136.478L266.209 136.478C267.897 135.894 269.551 135.323 271.222 134.81C274.029 133.948 276.639 133.334 279.004 133.244C281.347 133.155 283.374 133.583 285.098 134.736C286.827 135.892 288.417 137.886 289.677 141.23C292.29 148.161 293.771 156.629 292.476 164.067C291.195 171.427 287.226 177.729 278.872 180.743C270.187 183.877 263.066 183.63 257.291 180.185C251.457 176.707 246.675 169.781 243.128 158.852C239.516 147.723 237.668 139.517 239.075 133.07C240.435 126.842 244.937 121.921 255.125 117.656C265.282 113.404 278.476 111.827 289.945 113.958C292.607 114.453 295.158 115.143 297.546 116.037C296.817 114.738 296.081 113.443 295.34 112.153ZM316.548 154.012C317.428 156.006 318.289 158.001 319.133 159.997C318.776 163.559 318.23 167.098 317.519 170.517C316.137 177.164 314.119 183.426 311.607 188.58C309.111 193.701 306.053 197.885 302.506 200.181L300.876 197.662C303.755 195.799 306.514 192.183 308.91 187.266C311.29 182.383 313.238 176.369 314.582 169.906C315.657 164.735 316.336 159.32 316.548 154.012Z" fill="#CCFCFF"/>
<path d="M201.309 187.067C197.591 191.296 188.101 197.35 179.88 187.734C169.603 175.714 178.996 172.465 186.388 166.976C193.779 161.486 198.669 158.532 205.533 168.682C212.396 178.832 221.43 188.726 209.256 197.767C197.082 206.809 177.319 213.354 166.184 197.906C155.048 182.458 158.447 168.413 177.792 155.401C197.137 142.39 208.594 138.286 222.707 155.927C236.821 173.569 243.736 206.043 224.826 218.732C205.915 231.421 167.719 234.037 156.19 223.963" stroke="#CCFCFF" stroke-width="3"/>
<path d="M103.256 166.239C108.463 164.095 119.654 162.874 122.761 175.138C126.646 190.467 116.786 189.217 107.727 190.862C98.6681 192.507 92.9757 192.987 91.3215 180.847C89.6673 168.706 85.9537 155.834 100.874 153.124C115.795 150.415 136.411 153.306 139.547 172.089C142.682 190.873 133.411 201.956 110.303 205.047C87.1949 208.137 75.1062 206.738 70.273 184.669C65.4398 162.6 73.6332 130.424 96.2085 127.43C118.784 124.437 154.184 139.02 160.054 153.16" stroke="#CCFCFF" stroke-width="3"/>
<path fill-rule="evenodd" clip-rule="evenodd" d="M20.2759 168.779C20.6429 167.85 21.0141 166.921 21.3894 165.992C25.13 167.326 28.5106 167.387 31.8021 166.474C38.1617 164.712 44.5582 159.249 52.7176 150.864C60.7302 142.629 64.6258 135.168 64.9818 128.385C65.3342 121.67 62.2313 115.256 55.4081 109.035C54.0578 107.804 52.6709 106.802 51.2579 106.007C51.7708 105.147 52.2863 104.289 52.8044 103.434C54.3805 104.329 55.9269 105.449 57.4293 106.818C64.6785 113.428 68.3918 120.651 67.9776 128.542C67.567 136.366 63.1133 144.481 54.8678 152.956C46.769 161.279 39.852 167.357 32.6033 169.366C28.5676 170.484 24.5362 170.323 20.2759 168.779ZM44.2153 118.258C44.8123 118.625 45.4144 119.041 46.0207 119.508C49.244 121.991 51.2786 124.303 52.29 126.571C53.3349 128.914 53.2359 131.095 52.4349 133.111C51.6646 135.051 50.2593 136.805 48.7749 138.428C48.1161 139.148 47.415 139.871 46.7218 140.585L46.4361 140.88C45.6436 141.697 44.8634 142.51 44.1245 143.344C42.6007 145.064 41.1352 146.669 39.6632 147.943C38.1894 149.218 36.6176 150.244 34.8537 150.711C32.7468 151.269 30.613 150.979 28.3304 149.815C28.7436 148.905 29.1604 147.995 29.5808 147.086C31.4122 148.043 32.8493 148.139 34.0859 147.811C35.2302 147.508 36.3979 146.801 37.6999 145.674C39.0036 144.546 40.3501 143.08 41.8791 141.354C42.6667 140.465 43.4885 139.61 44.2819 138.792L44.5699 138.495C45.2666 137.777 45.9344 137.089 46.561 136.403C48.0008 134.829 49.0885 133.41 49.6468 132.004C50.1743 130.676 50.2393 129.338 49.5502 127.793C48.8275 126.173 47.2301 124.227 44.1897 121.884C43.7087 121.514 43.2349 121.183 42.7684 120.89C43.2479 120.011 43.7302 119.134 44.2153 118.258Z" fill="#CCFCFF"/>
<path d="M102.613 256.662C108.236 256.374 119.195 258.948 118.042 271.547C116.601 287.296 107.72 282.833 98.6307 281.368C89.5409 279.903 84.0132 278.461 86.4956 266.463C88.9781 254.464 89.7624 241.089 104.734 243.502C119.705 245.915 138.182 255.506 134.885 274.262C131.588 293.017 119.155 300.382 96.3366 295.602C73.5181 290.822 62.585 285.478 65.3755 263.059C68.166 240.64 86.6049 213.028 108.889 217.721C131.173 222.415 159.697 247.953 160.525 263.24" stroke="#CCFCFF" stroke-width="3"/>
<path d="M275.613 243.662C281.236 243.374 292.195 245.948 291.042 258.547C289.601 274.296 280.72 269.833 271.631 268.368C262.541 266.903 257.013 265.461 259.496 253.463C261.978 241.464 262.762 228.089 277.734 230.502C292.705 232.915 311.182 242.506 307.885 261.262C304.588 280.017 292.155 287.382 269.337 282.602C246.518 277.822 235.585 272.478 238.375 250.059C241.166 227.64 259.605 200.028 281.889 204.721C304.173 209.415 332.697 234.953 333.525 250.24" stroke="#CCFCFF" stroke-width="3"/>
<path fill-rule="evenodd" clip-rule="evenodd" d="M211.665 425.271C212.483 416.366 208.537 409.511 202.618 404.599C196.271 399.333 187.63 396.256 179.972 395.022C176.015 394.384 172.822 394.763 170.249 396.041C167.672 397.322 165.893 399.418 164.602 401.882C163.322 404.328 162.49 407.2 161.824 410.143C161.434 411.868 161.084 413.708 160.738 415.526C160.502 416.761 160.269 417.987 160.027 419.159C159.083 423.722 159.195 427.133 160.459 429.65C161.749 429.732 163.043 429.8 164.34 429.853C164.307 429.824 164.274 429.795 164.242 429.765C162.63 428.273 161.755 425.612 162.964 419.767C163.23 418.482 163.469 417.225 163.705 415.985L163.705 415.984L163.705 415.983C164.038 414.229 164.365 412.51 164.75 410.805C165.398 407.941 166.162 405.371 167.26 403.274C168.348 401.197 169.727 399.651 171.584 398.728C173.447 397.803 175.967 397.415 179.495 397.983C186.808 399.162 194.891 402.086 200.702 406.908C206.226 411.491 209.668 417.743 208.565 425.984C209.602 425.756 210.635 425.518 211.665 425.271ZM141.828 427.442C140.787 427.261 139.749 427.07 138.715 426.87C138.308 423.671 138.369 420.031 138.887 415.873C140.317 404.38 145.741 391.598 153.679 382.252C161.607 372.916 172.299 366.747 184.198 369.254C195.684 371.673 208.615 379.403 218.748 388.386C223.829 392.889 228.258 397.753 231.482 402.495C234.684 407.206 236.794 411.94 237.023 416.159L234.027 416.321C233.842 412.897 232.076 408.705 229.001 404.182C225.947 399.69 221.697 395.009 216.758 390.631C206.851 381.849 194.378 374.464 183.58 372.189C173.194 370.002 163.525 375.292 155.965 384.194C148.415 393.085 143.224 405.318 141.864 416.244C141.312 420.674 141.316 424.351 141.828 427.442ZM193.966 428.542C194.217 427.384 194.406 426.101 194.536 424.684C195.162 417.845 192.464 413.514 188.696 411.021C185.05 408.609 180.557 408.009 177.536 408.164L177.689 411.16C180.292 411.026 184.09 411.57 187.041 413.523C189.87 415.395 192.076 418.651 191.549 424.411C191.383 426.218 191.12 427.706 190.784 428.928C191.848 428.809 192.908 428.68 193.966 428.542Z" fill="#CCFCFF"/>
<path fill-rule="evenodd" clip-rule="evenodd" d="M24.428 346.766C23.9103 345.905 23.3999 345.04 22.897 344.169C33.7703 339.159 44.1053 332.002 50.1893 324.243C56.738 315.891 56.2618 304.88 51.6135 294.166C46.9708 283.465 38.2875 273.405 29.0851 267.36C19.8542 261.296 13.2573 260.313 7.33339 262.667C4.94126 263.617 2.60413 265.128 0.21521 267.164C0.153548 265.925 0.10504 264.682 0.0698242 263.436C2.0831 261.916 4.11954 260.716 6.22567 259.879C13.4251 257.018 21.0808 258.513 30.7322 264.853C40.4122 271.212 49.4853 281.723 54.3656 292.972C59.2402 304.207 60.0533 316.525 52.55 326.094C46.1365 334.273 35.4857 341.63 24.428 346.766ZM1.57862 281.866C2.88859 280.471 4.3209 279.31 5.99602 278.667C9.56192 277.297 13.4907 278.509 18.449 282.369C19.3936 283.104 20.39 283.854 21.3947 284.611C22.873 285.725 24.3692 286.851 25.7442 287.963C28.0907 289.86 30.3002 291.875 31.9288 294.103C33.5701 296.349 34.6647 298.871 34.6756 301.75C34.6865 304.623 33.6169 307.654 31.2969 310.923C27.0616 316.891 20.968 322.92 13.9714 326.411C13.5744 325.492 13.1853 324.568 12.8041 323.64C19.1618 320.419 24.8402 314.838 28.8504 309.187C30.9187 306.273 31.6835 303.841 31.6756 301.761C31.6678 299.686 30.8903 297.767 29.5067 295.874C28.1103 293.963 26.1421 292.142 23.8584 290.296C22.4987 289.197 21.101 288.145 19.6738 287.071L19.6734 287.071L19.6727 287.07C18.6644 286.312 17.6413 285.542 16.6063 284.736C11.8956 281.069 9.12243 280.68 7.0715 281.467C5.96644 281.892 4.88161 282.72 3.70841 283.981C3.19845 284.529 2.68733 285.141 2.163 285.812C1.9533 284.502 1.75845 283.186 1.57862 281.866ZM8.93044 313.266C10.4319 312.979 11.8227 312.425 13.0894 311.685C16.8638 309.479 19.3864 305.712 20.5817 302.934L17.826 301.748C16.7959 304.142 14.6311 307.309 11.5757 309.095C10.5092 309.718 9.31459 310.186 7.98841 310.384C8.29415 311.348 8.60819 312.309 8.93044 313.266Z" fill="#CCFCFF"/>
<path fill-rule="evenodd" clip-rule="evenodd" d="M0.566895 245.638C0.673991 244.377 0.795968 243.107 0.932572 241.827C4.18194 245.06 7.57585 247.823 10.9837 249.885C20.0635 255.38 30.9371 253.581 41.0132 247.675C51.0769 241.777 60.0169 231.945 64.9093 222.081C69.8169 212.187 69.9981 205.52 66.9478 199.923C63.7899 194.128 57.0199 189.136 47.0031 183.089C37.1665 177.151 29.017 175.048 22.3299 176.238C20.3593 176.589 18.4841 177.232 16.7032 178.174C17.1798 176.869 17.6652 175.563 18.1592 174.256C19.3334 173.833 20.548 173.508 21.8041 173.285C29.5171 171.912 38.4309 174.41 48.5535 180.521C58.4958 186.522 65.9826 191.882 69.582 198.487C73.2891 205.289 72.7281 213.069 67.5969 223.414C62.4505 233.79 53.109 244.063 42.5302 250.263C31.9637 256.456 19.8337 258.748 9.4305 252.452C6.41685 250.628 3.4383 248.31 0.566895 245.638ZM6.39474 211.633C10.301 218.027 16.9037 223.391 23.3589 226.888C26.5012 228.59 29.0077 229.056 31.0713 228.798C33.1298 228.54 34.9417 227.537 36.6544 225.935C38.383 224.319 39.9535 222.146 41.5108 219.656C42.4381 218.174 43.3139 216.659 44.2082 215.113L44.2082 215.113L44.2084 215.113C44.8403 214.02 45.4814 212.912 46.1565 211.787C49.2288 206.669 49.2816 203.869 48.2526 201.928C47.6982 200.882 46.7448 199.905 45.3522 198.892C43.9578 197.878 42.2248 196.899 40.1974 195.801C39.1531 195.235 38.1343 194.628 37.1572 194.041L36.8027 193.828C35.9455 193.312 35.1239 192.818 34.3144 192.363C32.4546 191.317 30.8258 190.579 29.3302 190.354C27.9167 190.141 26.5994 190.381 25.2507 191.402C23.8363 192.473 22.3029 194.47 20.7104 197.962C18.3105 203.225 19.3166 207.026 21.3689 209.728C23.5096 212.546 26.9143 214.313 29.4152 215.047L28.5702 217.926C25.6681 217.074 21.6245 215.024 18.9801 211.543C16.2472 207.945 15.1313 202.966 17.9808 196.718C19.6692 193.016 21.46 190.51 23.4396 189.011C25.4847 187.462 27.6309 187.064 29.7768 187.387C31.8405 187.698 33.867 188.669 35.7845 189.747C36.6356 190.226 37.4982 190.745 38.351 191.258L38.7027 191.47C39.6786 192.056 40.6466 192.632 41.6262 193.163C43.6467 194.257 45.5422 195.321 47.1167 196.466C48.6929 197.612 50.0486 198.911 50.9032 200.523C52.6923 203.898 51.9625 207.944 48.7286 213.331C48.1126 214.357 47.4876 215.437 46.8574 216.525C45.9302 218.127 44.9919 219.748 44.0542 221.247C42.4541 223.805 40.7194 226.241 38.7035 228.126C36.6717 230.026 34.2999 231.417 31.4441 231.774C28.5933 232.131 25.4548 231.435 21.9301 229.526C15.9641 226.294 9.75399 221.483 5.44653 215.599C5.7508 214.282 6.06695 212.96 6.39474 211.633Z" fill="#CCFCFF"/>
<path d="M203.993 298.487C198.59 296.901 189.096 290.851 194.345 279.34C200.907 264.951 207.816 272.097 215.912 276.482C224.007 280.867 228.749 284.054 222.442 294.559C216.136 305.064 210.978 317.429 197.644 310.207C184.31 302.984 170.038 287.829 179.345 271.215C188.652 254.601 202.819 251.756 222.778 263.805C242.737 275.853 251.292 284.508 241.253 304.748C231.214 324.987 204.69 344.959 185.207 333.169C165.724 321.378 147.235 287.852 151.503 273.149" stroke="#CCFCFF" stroke-width="3"/>
<path fill-rule="evenodd" clip-rule="evenodd" d="M286.021 386.163C285.215 386.703 284.406 387.228 283.594 387.738C277.847 391.353 271.937 394.241 266.481 396.006C261.061 397.76 255.925 398.458 251.811 397.495L252.496 394.574C255.835 395.356 260.353 394.836 265.557 393.152C270.725 391.48 276.41 388.713 281.997 385.199C293.204 378.151 303.79 368.248 309 358.521C314.011 349.165 311.644 338.401 305.218 328.648C298.8 318.908 288.512 310.496 278.406 306.128C268.267 301.746 261.6 301.915 256.17 305.254C250.549 308.712 245.919 315.734 240.406 326.055C234.993 336.189 233.32 344.438 234.859 351.053C236.383 357.603 241.144 362.904 249.425 366.988C257.39 370.916 264.683 369.405 270.873 365.224C277.13 360.998 282.203 354.058 285.385 347.369C286.92 344.141 287.254 341.614 286.888 339.567C286.522 337.525 285.426 335.768 283.736 334.141C282.031 332.5 279.779 331.046 277.211 329.621C275.682 328.773 274.124 327.978 272.533 327.166L272.533 327.166L272.532 327.165C271.408 326.592 270.267 326.01 269.109 325.395C263.837 322.595 261.038 322.689 259.153 323.819C258.138 324.427 257.212 325.43 256.274 326.874C255.335 328.32 254.448 330.102 253.457 332.184C252.947 333.257 252.395 334.306 251.86 335.312L251.665 335.678C251.195 336.561 250.744 337.407 250.333 338.239C249.386 340.151 248.735 341.817 248.588 343.322C248.45 344.745 248.759 346.048 249.849 347.341C250.993 348.697 253.068 350.124 256.638 351.531C262.02 353.651 265.763 352.447 268.353 350.256C271.055 347.97 272.641 344.478 273.243 341.942L276.162 342.635C275.464 345.577 273.628 349.723 270.291 352.546C266.841 355.464 261.928 356.84 255.539 354.322C251.753 352.83 249.157 351.173 247.556 349.275C245.902 347.314 245.392 345.192 245.602 343.032C245.804 340.954 246.668 338.88 247.644 336.908C248.077 336.033 248.55 335.145 249.018 334.266L249.211 333.904C249.745 332.899 250.27 331.902 250.748 330.896C251.735 328.82 252.698 326.872 253.759 325.239C254.821 323.605 256.046 322.183 257.611 321.245C260.888 319.282 264.967 319.798 270.516 322.745C271.573 323.306 272.684 323.874 273.804 324.446C275.452 325.288 277.12 326.14 278.666 326.998C281.305 328.462 283.829 330.066 285.817 331.98C287.821 333.91 289.334 336.205 289.841 339.038C290.347 341.866 289.816 345.037 288.094 348.657C284.763 355.662 279.386 363.094 272.552 367.71C265.652 372.371 257.212 374.173 248.098 369.678C239.3 365.339 233.728 359.43 231.937 351.733C230.161 344.103 232.189 335.07 237.76 324.641C243.232 314.398 248.192 306.64 254.599 302.699C261.197 298.64 268.996 298.792 279.596 303.374C290.227 307.969 300.976 316.759 307.723 326.998C313.254 335.393 316.216 344.977 313.924 354.071C305.973 365.895 296.589 376.676 286.021 386.163Z" fill="#CCFCFF"/>
<path d="M120.703 345.288C119.402 350.767 113.859 360.565 102.089 355.926C87.3757 350.128 94.1485 342.854 98.1029 334.54C102.057 326.225 104.991 321.323 115.813 327.07C126.634 332.816 139.253 337.318 132.74 351.013C126.227 364.708 111.841 379.756 94.7614 371.333C77.6821 362.91 74.0985 348.911 85.0834 328.348C96.0682 307.784 104.263 298.787 125.001 307.751C145.739 316.714 167.075 342.154 156.322 362.229C145.57 382.303 113.06 402.525 98.1536 399.034" stroke="#CCFCFF" stroke-width="3"/>
<path fill-rule="evenodd" clip-rule="evenodd" d="M76.5442 401.336C77.4466 398.716 77.9352 396.14 78.0014 393.606C78.2079 385.707 74.306 378.584 66.8854 372.167C59.1985 365.521 50.5768 365.137 42.7243 367.908C41.8906 368.203 41.065 368.532 40.2491 368.894C40.9245 369.696 41.6071 370.492 42.2968 371.282C42.7697 371.088 43.2452 370.906 43.7227 370.737C50.7672 368.251 58.2051 368.628 64.9232 374.437C71.9077 380.476 75.1782 386.805 75.0025 393.528C74.9514 395.481 74.609 397.498 73.9617 399.581C74.8169 400.174 75.6778 400.758 76.5442 401.336ZM27.9628 352.394C27.4083 351.548 26.8611 350.697 26.3213 349.841C29.856 348.261 33.4856 346.884 37.0869 345.743C43.5598 343.694 50.0072 342.389 55.7318 342.056C61.4187 341.725 66.5643 342.343 70.3026 344.313L68.9044 346.967C65.8701 345.369 61.3665 344.733 55.906 345.051C50.4833 345.366 44.2851 346.611 37.9924 348.604C34.6236 349.67 31.2464 350.945 27.9628 352.394ZM56.0654 385.337C57.691 386.541 59.015 387.711 60.0588 388.862C58.7093 387.707 57.378 386.532 56.0654 385.337Z" fill="#CCFCFF"/>
<path fill-rule="evenodd" clip-rule="evenodd" d="M343 258.924C343 258.783 343 258.641 343 258.5C343 257.599 342.991 256.692 342.973 255.78C330.1 259.872 316.883 266.987 308.935 275.577C300.678 284.504 300.485 296.846 304.428 308.442C308.132 319.332 315.566 329.875 324.009 337.022C324.481 336.107 324.944 335.188 325.4 334.263C317.589 327.471 310.713 317.604 307.269 307.476C303.508 296.419 303.93 285.405 311.138 277.615C318.435 269.727 330.707 262.963 343 258.924ZM341.482 281.418C336.611 284.419 332.267 288.4 328.882 292.429C326.304 295.498 324.991 298.432 324.768 301.297C324.544 304.166 325.43 306.769 326.883 309.141C328.324 311.495 330.363 313.684 332.547 315.765C332.71 315.92 332.874 316.076 333.041 316.232C333.41 315.198 333.77 314.159 334.12 313.116C332.209 311.256 330.58 309.433 329.441 307.574C328.216 305.575 327.598 303.598 327.759 301.53C327.92 299.456 328.881 297.095 331.179 294.358C333.894 291.127 337.224 287.971 340.904 285.389C341.112 284.07 341.305 282.747 341.482 281.418Z" fill="#CCFCFF"/>
</svg>
