<svg width="343" height="430" viewBox="0 0 343 430" fill="none" xmlns="http://www.w3.org/2000/svg">
<path d="M343 258.5C343 353.217 266.217 430 171.5 430C76.7832 430 0 353.217 0 258.5C0 163.783 99.7832 0 171.5 0C243.217 0 343 163.783 343 258.5Z" fill="#DD7A9E"/>
<path fill-rule="evenodd" clip-rule="evenodd" d="M331.742 319.742C339.015 300.722 343 280.077 343 258.5C343 228.377 332.908 191.269 316.835 154.665L308 163.5L253.5 109L199 163.5L144.5 109L90 163.5L44.409 117.909C18.0936 165.31 0 218.167 0 258.5C0 284.434 5.7566 309.024 16.0617 331.062L35.5 350.5L90 296L144.5 350.5L199 296L253.5 350.5L308 296L331.742 319.742Z" fill="#77FFF7"/>
</svg>
