<svg width="343" height="430" viewBox="0 0 343 430" fill="none" xmlns="http://www.w3.org/2000/svg">
<path d="M343 258.5C343 353.217 266.217 430 171.5 430C76.7832 430 0 353.217 0 258.5C0 163.783 99.7832 0 171.5 0C243.217 0 343 163.783 343 258.5Z" fill="#DD7A7A"/>
<path fill-rule="evenodd" clip-rule="evenodd" d="M171.5 430C266.217 430 343 353.217 343 258.5C343 238.432 338.521 215.265 330.779 191.211L290.5 283L258.5 147L229.5 230L207.5 158.5L171 291.5L151 141.5L122 248L100 164.5L52.5 283L15 208.5L0.0674053 254.176C0.0226138 255.633 0 257.074 0 258.5C0 353.217 76.7832 430 171.5 430Z" fill="#ED3E3E"/>
<path fill-rule="evenodd" clip-rule="evenodd" d="M171.5 430C266.217 430 343 353.217 343 258.5C343 255.309 342.887 252.04 342.665 248.701L314 297L292.5 190.5L253 281L238.5 225L223.5 276L185 225L170.5 281L146.5 209.5L118.5 270L111.5 219L96 297L69.5 219L43.5 325L13.5 276L4.55518 297.933C22.3697 373.642 90.3533 430 171.5 430Z" fill="#FF9C41"/>
</svg>
