<svg width="343" height="430" viewBox="0 0 343 430" fill="none" xmlns="http://www.w3.org/2000/svg">
<path d="M343 258.5C343 353.217 266.217 430 171.5 430C76.7832 430 0 353.217 0 258.5C0 163.783 99.7832 0 171.5 0C243.217 0 343 163.783 343 258.5Z" fill="#7ADD9C"/>
<path fill-rule="evenodd" clip-rule="evenodd" d="M342.931 254.139L318.5 229.707L270 278.207L221.5 229.707L173 278.207L124.5 229.707L76 278.207L27.5 229.707L0.00622559 257.201C0.0107594 256.724 0.0177734 256.246 0.0272515 255.766L27.5 228.293L76 276.793L124.5 228.293L173 276.793L221.5 228.293L270 276.793L318.5 228.293L342.879 252.672C342.899 253.162 342.916 253.651 342.931 254.139ZM13.7667 186.526L27.5 172.793L76 221.293L124.5 172.793L173 221.293L221.5 172.793L270 221.293L318.5 172.793L327.65 181.943C327.906 182.668 328.16 183.393 328.41 184.117L318.5 174.207L270 222.707L221.5 174.207L173 222.707L124.5 174.207L76 222.707L27.5 174.207L13.0569 188.65C13.2908 187.943 13.5274 187.235 13.7667 186.526Z" fill="#95006B"/>
<path fill-rule="evenodd" clip-rule="evenodd" d="M342.318 273.896C304.008 322.413 241.547 354 171 354C101.143 354 39.2156 323.029 0.813965 275.316C9.26376 362.141 82.4572 430 171.5 430C261.028 430 334.533 361.4 342.318 273.896Z" fill="#DD7A7A"/>
</svg>
