<svg width="343" height="430" viewBox="0 0 343 430" fill="none" xmlns="http://www.w3.org/2000/svg">
<path d="M343 258.5C343 353.217 266.217 430 171.5 430C76.7832 430 0 353.217 0 258.5C0 163.783 99.7832 0 171.5 0C243.217 0 343 163.783 343 258.5Z" fill="#947ADD"/>
<path fill-rule="evenodd" clip-rule="evenodd" d="M2.49353 230.425L235.724 417.57C215.888 425.586 194.209 430 171.5 430C163.092 430 154.826 429.395 146.742 428.226L11.1324 319.413C3.93872 300.484 0 279.952 0 258.5C0 249.678 0.865601 240.257 2.49353 230.425Z" fill="#D7FFD8"/>
<path fill-rule="evenodd" clip-rule="evenodd" d="M29.7299 146.764L304.274 367.059C290.416 383.989 273.383 398.22 254.085 408.843L6.71411 210.353C11.8947 189.798 19.8406 168.103 29.7299 146.764Z" fill="#D7FFD8"/>
<path fill-rule="evenodd" clip-rule="evenodd" d="M71.692 74.9196L340.065 290.262C335.844 312.801 327.214 333.787 315.105 352.29L37.9763 129.922C47.9678 110.562 59.4197 91.8389 71.692 74.9196Z" fill="#D7FFD8"/>
<path fill-rule="evenodd" clip-rule="evenodd" d="M342.689 268.909C342.896 265.466 343 261.995 343 258.5C343 233.067 335.806 202.654 323.892 171.77L129.255 15.5932C113.595 26.2726 97.7633 41.8355 82.806 60.3783L342.689 268.909Z" fill="#D7FFD8"/>
<path fill-rule="evenodd" clip-rule="evenodd" d="M307.804 135.402L146.401 5.89186C155.001 2.0746 163.428 0 171.5 0C216.389 0 272.275 64.1676 307.804 135.402Z" fill="#D7FFD8"/>
</svg>
