<svg width="23" height="23" viewBox="0 0 23 23" fill="none" xmlns="http://www.w3.org/2000/svg">
<path d="M11.5 1.4375C14.1687 1.4375 16.7282 2.49765 18.6153 4.38474C20.5023 6.27182 21.5625 8.83126 21.5625 11.5C21.5625 14.1687 20.5023 16.7282 18.6153 18.6153C16.7282 20.5023 14.1687 21.5625 11.5 21.5625C8.83126 21.5625 6.27182 20.5023 4.38474 18.6153C2.49765 16.7282 1.4375 14.1687 1.4375 11.5C1.4375 8.83126 2.49765 6.27182 4.38474 4.38474C6.27182 2.49765 8.83126 1.4375 11.5 1.4375V1.4375ZM11.5 10.2796L9.16263 7.94219C9.00079 7.78035 8.78128 7.68943 8.55241 7.68943C8.32353 7.68943 8.10403 7.78035 7.94219 7.94219C7.78035 8.10403 7.68943 8.32353 7.68943 8.55241C7.68943 8.78128 7.78035 9.00079 7.94219 9.16263L10.2796 11.5L7.94219 13.8374C7.86205 13.9175 7.79849 14.0126 7.75512 14.1173C7.71175 14.222 7.68943 14.3343 7.68943 14.4476C7.68943 14.5609 7.71175 14.6731 7.75512 14.7778C7.79849 14.8825 7.86205 14.9777 7.94219 15.0578C8.02232 15.1379 8.11746 15.2015 8.22216 15.2449C8.32686 15.2883 8.43908 15.3106 8.55241 15.3106C8.66573 15.3106 8.77795 15.2883 8.88265 15.2449C8.98736 15.2015 9.08249 15.1379 9.16263 15.0578L11.5 12.7204L13.8374 15.0578C13.9175 15.1379 14.0126 15.2015 14.1173 15.2449C14.222 15.2883 14.3343 15.3106 14.4476 15.3106C14.5609 15.3106 14.6731 15.2883 14.7778 15.2449C14.8825 15.2015 14.9777 15.1379 15.0578 15.0578C15.1379 14.9777 15.2015 14.8825 15.2449 14.7778C15.2883 14.6731 15.3106 14.5609 15.3106 14.4476C15.3106 14.3343 15.2883 14.222 15.2449 14.1173C15.2015 14.0126 15.1379 13.9175 15.0578 13.8374L12.7204 11.5L15.0578 9.16263C15.1379 9.08249 15.2015 8.98736 15.2449 8.88265C15.2883 8.77795 15.3106 8.66573 15.3106 8.55241C15.3106 8.43908 15.2883 8.32686 15.2449 8.22216C15.2015 8.11746 15.1379 8.02232 15.0578 7.94219C14.9777 7.86205 14.8825 7.79849 14.7778 7.75512C14.6731 7.71175 14.5609 7.68943 14.4476 7.68943C14.3343 7.68943 14.222 7.71175 14.1173 7.75512C14.0126 7.79849 13.9175 7.86205 13.8374 7.94219L11.5 10.2796Z" fill="#111111"/>
</svg>
