<svg width="149" height="135" viewBox="0 0 149 135" fill="none" xmlns="http://www.w3.org/2000/svg">
<path d="M66.8355 0C72.3989 0.0710526 77.6771 3.41053 79.7455 8.88158L115.409 93.7895C116.05 95.6368 116.407 97.6974 116.336 99.4737C116.255 102.218 115.385 104.882 113.83 107.149C112.275 109.416 110.1 111.191 107.563 112.263L54.9954 133.934C53.1409 134.787 51.2151 135 49.3606 135C46.5729 134.939 43.8643 134.065 41.5698 132.486C39.2754 130.908 37.4956 128.694 36.4506 126.118L1.07295 41.2105C-1.92274 34.0342 1.57223 25.7211 8.84748 22.7368L61.3434 1.06579C63.1266 0.426316 64.981 0 66.8355 0V0ZM91.657 0H101.999C105.783 0 109.411 1.49718 112.086 4.16217C114.761 6.82716 116.264 10.4417 116.264 14.2105V59.329L91.657 0V0ZM130.601 10.9421L140.159 14.9921C141.889 15.6939 143.463 16.729 144.791 18.0382C146.119 19.3473 147.174 20.9047 147.896 22.621C148.619 24.3373 148.994 26.1787 149 28.0397C149.006 29.9007 148.644 31.7447 147.933 33.4658L130.601 75.1026V10.9421V10.9421ZM66.8355 13.9974L14.1256 35.8105L49.5746 121.145L102.356 99.4026L66.8355 13.9974V13.9974ZM48.7187 44.6921L71.757 61.8158L68.6187 90.3079L45.5804 73.1132L48.7187 44.6921Z" fill="#111111"/>
</svg>
