<svg width="138" height="138" viewBox="0 0 138 138" fill="none" xmlns="http://www.w3.org/2000/svg">
<path d="M18.6793 13.6669L122.524 63.3321C123.574 63.8333 124.46 64.6214 125.081 65.6052C125.701 66.5891 126.03 67.7284 126.03 68.8916C126.03 70.0547 125.701 71.1941 125.081 72.1779C124.46 73.1617 123.574 73.9498 122.524 74.451L18.6793 124.116C17.6147 124.626 16.4261 124.819 15.2548 124.673C14.0835 124.527 12.9789 124.047 12.0724 123.291C11.1659 122.535 10.4956 121.535 10.1413 120.409C9.78702 119.283 9.76366 118.079 10.074 116.94L20.4634 78.8522C20.5906 78.3854 20.8524 77.9664 21.2161 77.6474C21.5798 77.3283 22.0294 77.1234 22.5088 77.0582L72.8295 70.2223C73.0399 70.1924 73.2389 70.1086 73.4073 69.979C73.5757 69.8495 73.7077 69.6786 73.7906 69.483L73.8793 69.1774C73.9182 68.9023 73.8629 68.622 73.7224 68.3822C73.582 68.1425 73.3646 67.9572 73.1055 67.8566L72.8344 67.7826L22.563 60.9467C22.0845 60.8806 21.636 60.6753 21.2732 60.3563C20.9104 60.0373 20.6494 59.6188 20.5226 59.1527L10.074 20.8479C9.76241 19.7087 9.78481 18.504 10.1386 17.3772C10.4923 16.2504 11.1625 15.249 12.0692 14.4923C12.976 13.7356 14.0812 13.2555 15.2531 13.1092C16.425 12.9629 17.6143 13.1565 18.6793 13.6669V13.6669Z" fill="#111111"/>
</svg>
